<?xml version="1.0" encoding="UTF-8" standalone="no"?>
<svg
   xmlns:dc="http://purl.org/dc/elements/1.1/"
   xmlns:cc="http://creativecommons.org/ns#"
   xmlns:rdf="http://www.w3.org/1999/02/22-rdf-syntax-ns#"
   xmlns:svg="http://www.w3.org/2000/svg"
   xmlns="http://www.w3.org/2000/svg"
   xmlns:sodipodi="http://sodipodi.sourceforge.net/DTD/sodipodi-0.dtd"
   xmlns:inkscape="http://www.inkscape.org/namespaces/inkscape"
   id="fc2f056a-f2b1-4dd9-91f4-f36b8dc4c674"
   data-name="Layer 1"
   width="800.25287"
   height="695.42298"
   viewBox="0 0 800.25287 695.42298"
   version="1.1"
   sodipodi:docname="bike2.svg"
   inkscape:version="1.0.1 (c497b03c, 2020-09-10)">
  <metadata
     id="metadata942">
    <rdf:RDF>
      <cc:Work
         rdf:about="">
        <dc:format>image/svg+xml</dc:format>
        <dc:type
           rdf:resource="http://purl.org/dc/dcmitype/StillImage" />
      </cc:Work>
    </rdf:RDF>
  </metadata>
  <defs
     id="defs940" />
  <sodipodi:namedview
     pagecolor="#ffffff"
     bordercolor="#666666"
     borderopacity="1"
     objecttolerance="10"
     gridtolerance="10"
     guidetolerance="10"
     inkscape:pageopacity="0"
     inkscape:pageshadow="2"
     inkscape:window-width="1303"
     inkscape:window-height="760"
     id="namedview938"
     showgrid="false"
     inkscape:zoom="0.97466362"
     inkscape:cx="327.26212"
     inkscape:cy="445.4303"
     inkscape:window-x="0"
     inkscape:window-y="23"
     inkscape:window-maximized="0"
     inkscape:current-layer="fc2f056a-f2b1-4dd9-91f4-f36b8dc4c674"
     inkscape:document-rotation="0" />
  <path
     d="M592.81982,607.5285H578.06006a6.50619,6.50619,0,0,0-6.5,6.5v92.01a6.50615,6.50615,0,0,0,6.5,6.5h14.75976a6.49957,6.49957,0,0,0,6.5-6.5v-92.01A6.49962,6.49962,0,0,0,592.81982,607.5285Z"
     transform="translate(-199.87357 -102.28851)"
     fill="#6c63ff"
     id="path923"
     style="fill:#f4d7d7" />
  <path
     d="M593.252,721.28851h-16a5.5,5.5,0,0,1,0-11h16a5.5,5.5,0,0,1,0,11Z"
     transform="translate(-199.87357 -102.28851)"
     fill="#2f2e41"
     id="path909" />
  <path
     d="m 567.381,631.51606 c 0,0 0.72439,4.21241 0,0 l -21.29824,-86.48243 c -0.38368,-2.39799 0.31281,-4.8429 1.90259,-6.67871 1.68694,-1.99385 4.03229,-3.31746 6.61109,-3.731 l 21.60668,-3.71631 c 5.51954,-0.94873 10.67847,2.17676 11.5022,6.9668 l 14.41573,87.05829 c 0.38463,2.39662 -2.76713,-0.003 0,0 -0.4739,-4.48183 -0.16473,53.00847 -2.74571,53.42108 l -26.82602,-0.19818 c -0.65291,0.11276 -4.50575,-46.63988 -5.16832,-46.63954 z"
     transform="translate(-199.87357,-102.28851)"
     fill="#ccc"
     id="path925"
     style="fill:#000045;fill-opacity:1;stroke-width:1.0015748;stroke-miterlimit:4;stroke-dasharray:none;paint-order:stroke markers fill"
     sodipodi:nodetypes="cccccccccccc" />
  <path
     d="M441.14014,792.45849l-.07032.35-.02.08c0-.03-.00976-.05-.00976-.08-.02-.13-.03027-.26-.04981-.39C441.04,792.42853,441.08984,792.44849,441.14014,792.45849Z"
     transform="translate(-199.87357 -102.28851)"
     fill="#f2f2f2"
     id="path851" />
  <path
     d="M432.5,795.30853c-.66992-1.05005-1.33984-2.09-2-3.14-.56982-.89-1.12988-1.78-1.68994-2.67-.14014-.22-.27979-.43-.3999-.65q2.75976.855,5.54,1.64c.1499.25.30957.51.48.76.4497.71.8999,1.43,1.35986,2.14.06982.12.12988.23.18017.34C436.75977,795.65851,433.75,797.24853,432.5,795.30853Z"
     transform="translate(-199.87357 -102.28851)"
     fill="#fff"
     id="path855" />
  <path
     d="M426.02,793.2785c-.04981-.07-.1001-.15-.1499-.22.02978-.01.0498-.01.08008-.02Z"
     transform="translate(-199.87357 -102.28851)"
     fill="#f2f2f2"
     id="path859" />
  <path
     d="M758.85986,792.45849l.07032.35.02.08c0-.03.00976-.05.00976-.08.02-.13.03027-.26.04981-.39C758.96,792.42853,758.91016,792.44849,758.85986,792.45849Z"
     transform="translate(-199.87357 -102.28851)"
     fill="#f2f2f2"
     id="path865" />
  <path
     d="M829.12988,675.68854c-.41992.87-.83984,1.74-1.27,2.6q.85548,2.76,1.51026,5.6c.4497-.93.90967-1.87,1.35986-2.8q10.97973-22.515,21.35986-45.3c11.91993-26.03,23.43018-52.24,34.96-78.43q18.21021-41.37,36.41016-82.72,18.19482-41.36994,36.3999-82.72a2.3699,2.3699,0,0,0,.16993-.62c.21044-1.92-2.50977-3.31-3.41993-1.36a.21716.21716,0,0,0-.02978.05q-2.28,5.145-4.54,10.3-18.19482,41.355-36.3999,82.72-18.13551,41.205-36.28028,82.42005c-11.48974,26.1-23.00976,52.19-34.98974,78.06Q836.88476,659.65848,829.12988,675.68854Z"
     transform="translate(-199.87357 -102.28851)"
     fill="#fff"
     id="path867" />
  <path
     d="M767.5,795.30853c.66992-1.05005,1.33984-2.09,2-3.14.56982-.89,1.12988-1.78,1.68994-2.67.14014-.22.27979-.43.3999-.65q-2.75976.855-5.54,1.64c-.1499.25-.30957.51-.48.76-.4497.71-.8999,1.43-1.35986,2.14-.06982.12-.12988.23-.18017.34C763.24023,795.65851,766.25,797.24853,767.5,795.30853Z"
     transform="translate(-199.87357 -102.28851)"
     fill="#fff"
     id="path869" />
  <path
     d="M773.98,793.2785c.04981-.07.1001-.15.1499-.22-.02978-.01-.0498-.01-.08008-.02Z"
     transform="translate(-199.87357 -102.28851)"
     fill="#f2f2f2"
     id="path873" />
  <path
     d="M986.54011,639.34157l-41.23342,33.11837L904.07327,705.5783c-13.05871,10.48867-26.1091,20.98924-39.32225,31.28338-13.09711,10.20373-26.35621,20.20558-39.92738,29.77224-13.55193,9.55309-27.4174,18.67222-41.70123,27.09648q-2.66815,1.57362-5.35551,3.11424c-1.2403.71165-2.43766-1.16931-1.18857-1.886,14.3852-8.25384,28.34885-17.22217,41.98117-26.66387,13.647-9.45188,26.96565-19.36971,40.102-29.51682,13.20656-10.20133,26.23051-20.6359,39.24155-31.08455q20.54317-16.49743,41.08377-32.99807L980.22027,641.577l5.13127-4.1214c1.11587-.89626,2.29759.99524,1.18857,1.886Z"
     transform="translate(-199.87357 -102.28851)"
     fill="#fff"
     id="path875" />
  <path
     d="M568.8689,459.7749a6.45058,6.45058,0,0,0-3.7374,3.291l-5.13578,10.44549-1.375,2.79294a6.51047,6.51047,0,0,0,2.95616,8.7053l39.80212,19.5816,70.58378,34.71145a6.51092,6.51092,0,0,0,8.47888-2.54238c.083-.13843.15264-.27155.22647-.414l3.93267-7.99245,2.58215-5.25488a6.46954,6.46954,0,0,0,.483-1.317,6.53493,6.53493,0,0,0-.16143-3.64573,6.44981,6.44981,0,0,0-3.29106-3.73724L675.799,510.258l-62.24757-30.61622-39.71977-19.54524A6.49811,6.49811,0,0,0,568.8689,459.7749Z"
     transform="translate(-199.87357 -102.28851)"
     fill="#6c63ff"
     id="path877"
     style="fill:#f4d7d7" />
  <path
     d="M556.5543,463.65194a18.088,18.088,0,0,0-1.88345,3.30079,18.52233,18.52233,0,0,0,9.45315,24.39545l31.10412,13.73076a6.52767,6.52767,0,0,0,6.15084-.48772,6.40643,6.40643,0,0,0,1.85553-1.82611,6.22865,6.22865,0,0,0,.565-1.00755l9.69231-21.95584a.9202.9202,0,0,0,.05966-.15994,6.49574,6.49574,0,0,0-3.381-8.41144L579.0663,457.49958A18.5292,18.5292,0,0,0,556.5543,463.65194Z"
     transform="translate(-199.87357 -102.28851)"
     fill="#2f2e41"
     id="path879"
     style="fill:#dbfbe8;fill-opacity:1" />
  <path
     d="M516.36694,574.603a26.659,26.659,0,0,1-5.97949-.63184c-8.87671-2.04883-12.15478-5.94483-12.69214-7.92383a1.75854,1.75854,0,0,1,.32544-1.81006,1.53215,1.53215,0,0,1,1.63745-.22754c2.75733.92041,41.84693-6.80957,55.72925-10.01318,5.77319-1.33154,9.825-1.1123,12.04346.65234A3.88405,3.88405,0,0,1,569,557.48382v.34815L541.699,567.9433C540.81494,568.38275,528.09326,574.603,516.36694,574.603Z"
     transform="translate(-199.87357 -102.28851)"
     fill="#2f2e41"
     id="path887" />
  <path
     d="M730.17871,695.09808a1.00021,1.00021,0,0,1-.916-.59814L677.75586,577.34369a2.98513,2.98513,0,0,0-2.80737-1.79151l-140.93238,2.87647a2.986,2.986,0,0,0-2.49829,1.43457l-67.6372,110.603a.9998.9998,0,1,1-1.70606-1.043l67.63721-110.60352a4.97807,4.97807,0,0,1,4.16333-2.39111l140.93237-2.87647a5.0031,5.0031,0,0,1,4.67944,2.98682l51.50684,117.15625a1.001,1.001,0,0,1-.915,1.40283Z"
     transform="translate(-199.87357 -102.28851)"
     fill="#2f2e41"
     id="path889" />
  <path
     d="M566.99951,699.289a1.00083,1.00083,0,0,1-.96069-.72412L533.43945,585.14349a1.00013,1.00013,0,0,1,1.92237-.55273l32.59936,113.42138a1,1,0,0,1-.68506,1.23731A.98656.98656,0,0,1,566.99951,699.289Z"
     transform="translate(-199.87357 -102.28851)"
     fill="#2f2e41"
     id="path891" />
  <path
     d="M574,567.78851H542a22.52539,22.52539,0,0,1-22.5-22.5v-5a22.52539,22.52539,0,0,1,22.5-22.5h32a22.52539,22.52539,0,0,1,22.5,22.5v5A22.52539,22.52539,0,0,1,574,567.78851Z"
     transform="translate(-199.87357 -102.28851)"
     fill="#ccc"
     id="path893"
     style="fill:#000045;fill-opacity:1" />
  <circle
     cx="538.37842"
     cy="602.19554"
     r="6"
     fill="#2f2e41"
     id="circle895" />
  <circle
     cx="256.37842"
     cy="602.19554"
     r="6"
     fill="#2f2e41"
     id="circle897" />
  <path
     d="M670.17041,531.31781a3.5003,3.5003,0,0,1-1.17017-6.80029l30.16993-10.666a3.49977,3.49977,0,1,1,2.33349,6.59912l-30.16992,10.66651A3.47742,3.47742,0,0,1,670.17041,531.31781Z"
     transform="translate(-199.87357 -102.28851)"
     fill="#2f2e41"
     id="path899" />
  <path
     d="M472.47632,710.53168a1,1,0,0,1-.00293-2l83.52368-.24317H556a1,1,0,0,1,.00293,2l-83.52368.24317Z"
     transform="translate(-199.87357 -102.28851)"
     fill="#2f2e41"
     id="path903" />
  <path
     d="M676.19189,567.05121a.99988.99988,0,0,1-.9768-.79053l-4.677-21.84424a.99981.99981,0,0,1,.97778-1.20947h15.866V532.48431a1,1,0,0,1,2,0V544.207a1.00005,1.00005,0,0,1-1,1H672.75269l4.418,20.63476a.99913.99913,0,0,1-.97876,1.20948Z"
     transform="translate(-199.87357 -102.28851)"
     fill="#2f2e41"
     id="path905" />
  <path
     d="M574,736.28851a20,20,0,1,1,20-20A20.02276,20.02276,0,0,1,574,736.28851Zm0-38a18,18,0,1,0,18,18A18.02031,18.02031,0,0,0,574,698.28851Z"
     transform="translate(-199.87357 -102.28851)"
     fill="#2f2e41"
     id="path907" />
  <path
     d="M975.273,797.28235H236.979a1.19068,1.19068,0,1,1,0-2.38137H975.273a1.19068,1.19068,0,1,1,0,2.38137Z"
     transform="translate(-199.87357 -102.28851)"
     fill="#3f3d56"
     id="path911" />
  <path
     d="M582.94753,432.6207a6.45062,6.45062,0,0,0-4.3882,2.35425l-7.37783,9.0029-1.97447,2.40679a6.51047,6.51047,0,0,0,.8978,9.1496l34.30245,28.12454,60.834,49.86158a6.51091,6.51091,0,0,0,8.835-.5464c.11231-.11591.21042-.22969.31473-.35163l5.64812-6.888,3.71011-4.5295a6.46892,6.46892,0,0,0,.77-1.17258,6.53489,6.53489,0,0,0,.67236-3.58683,6.44982,6.44982,0,0,0-2.35436-4.38805l-7.25142-5.94693-53.6483-43.977L587.707,434.06314A6.49809,6.49809,0,0,0,582.94753,432.6207Z"
     transform="translate(-199.87357 -102.28851)"
     fill="#6c63ff"
     id="path913"
     style="fill:#ffd5d5" />
  <circle
     cx="361.18922"
     cy="239.90762"
     r="53.51916"
     fill="#6c63ff"
     id="circle915"
     style="fill:#f4d7d7" />
  <path
     d="M620.00524,458.33138l-23.86116-24.2153a18.50088,18.50088,0,0,0-26.36247,25.96442l23.86165,24.21536a6.49645,6.49645,0,0,0,8.17218.88737,5.3871,5.3871,0,0,0,1.02258-.81555l17.09551-16.8414a6.42742,6.42742,0,0,0,1.419-2.07038A6.53488,6.53488,0,0,0,620.00524,458.33138Z"
     transform="translate(-199.87357 -102.28851)"
     fill="#2f2e41"
     id="path921"
     style="fill:#dbfbe8;fill-opacity:1" />
  <path
     d="M458,795a91,91,0,1,1,91-91A91.10286,91.10286,0,0,1,458,795Zm0-180a89,89,0,1,0,89,89A89.10056,89.10056,0,0,0,458,615Z"
     transform="translate(-199.87357 -102.28851)"
     fill="#2f2e41"
     id="path933" />
  <path
     d="M740,795a91,91,0,1,1,91-91A91.10286,91.10286,0,0,1,740,795Zm0-180a89,89,0,1,0,89,89A89.10024,89.10024,0,0,0,740,615Z"
     transform="translate(-199.87357 -102.28851)"
     fill="#2f2e41"
     id="path935" />
  <path
     d="m 352.74431,293.25741 c -6.16948,-10.49458 -11.03841,-25.04664 -4.24577,-35.03185 6.70504,-9.85646 19.92972,-8.40436 30.1987,-12.76576 14.3029,-6.0747 22.59817,-25.17048 20.01107,-42.27198 -2.58711,-17.10152 -14.66702,-31.27815 -29.0577,-37.07877 -14.39069,-5.80063 -30.6185,-3.91414 -44.71089,2.76563 -17.34793,8.22288 -32.22944,24.12946 -38.46968,44.27892 -6.24024,20.14948 -2.90435,44.34278 10.04113,59.8301 13.87899,16.60409 35.66117,21.02913 55.81159,20.76062"
     fill="#2f2e41"
     id="path76-2"
     style="fill:#ffd200;fill-opacity:1;stroke-width:1.88148" />
  <path
     d="m 312.42142,201.42328 c -7.77419,6.78731 -19.6352,3.77268 -27.98031,-2.18403 -8.34512,-5.95671 -15.11665,-14.43869 -24.14585,-19.10899 -15.91818,-8.23355 -35.16386,-10.43017 -50.65617,-1.31006 -15.49231,9.12012 -25.57827,-9.51033 -41.94273,-2.35336 -16.36446,7.15697 -39.79829,12.4437 -52.18963,-1.07025 -6.24758,19.41246 12.44919,37.1265 27.62664,49.69574 18.20056,15.07283 25.33158,11.59008 41.68536,0.90681 17.93051,-11.71333 23.98215,4.57857 44.09316,-1.88651 11.12869,-3.57753 23.07864,-0.69611 34.3262,2.42478 11.24756,3.12089 22.9754,6.49305 34.3261,3.8362 11.35071,-2.65686 21.96794,-13.59615 20.52389,-25.95917 z"
     fill="#2f2e41"
     id="path78-3"
     style="fill:#ffd200;fill-opacity:1;stroke-width:1.82774"
     sodipodi:nodetypes="csssscssssscc" />
  <path
     d="M591.15356,698.48382a1,1,0,0,1-.71972-1.69433l90.40381-93.7002a1.00006,1.00006,0,1,1,1.43945,1.38868l-90.40381,93.70019A.99656.99656,0,0,1,591.15356,698.48382Z"
     transform="translate(-199.87357 -102.28851)"
     fill="#2f2e41"
     id="path901" />
  <path
     d="m 641.81982,563.5285 h -14.75976 c -3.58844,0.003 -6.49659,2.91156 -6.5,6.5 v 92.01 c 0.003,3.58845 2.91155,6.49661 6.5,6.5 h 14.75976 c 3.58995,2.4e-4 6.50024,-2.91005 6.5,-6.5 v -92.01 c 2.1e-4,-3.58994 -2.91006,-6.50021 -6.5,-6.5 z"
     transform="translate(-199.87357,-102.28851)"
     fill="#6c63ff"
     id="path881"
     style="fill:#f4d7d7"
     sodipodi:nodetypes="ccccccccc" />
  <path
     d="m 620.45236,598.76899 c -8.12752,-8.56819 1.0016,0.39275 0,0 l -73.10177,-34.62892 c -4.559,-1.84602 -6.76399,-7.03353 -4.92945,-11.59716 l 7.0354,-17.98243 c 0.85627,-2.21788 2.55162,-4.00926 4.719,-4.98632 2.138,-0.97907 4.58222,-1.04657 6.771,-0.187 l 82.21973,32.167 c 2.19061,0.85456 4.24665,6.30487 5.15355,8.47434 0.92896,2.18841 0.21251,69.13024 -0.66357,71.34035 l -27.02893,0.0999 c -1.33373,3.45412 -1.89096,-28.61961 -0.17496,-42.6998 z"
     transform="translate(-199.87357,-102.28851)"
     fill="#ccc"
     id="path883"
     style="fill:#000045;fill-opacity:1;stroke-width:1.00157;stroke-miterlimit:4;stroke-dasharray:none"
     sodipodi:nodetypes="ccccccccccccc" />
  <path
     d="M592.50977,421.94536a38.7254,38.7254,0,0,0-8.77979-7.41412,44.843,44.843,0,0,0-46.87988.20328,39.09811,39.09811,0,0,0-7.62989,6.30067,33.23916,33.23916,0,0,0-9.30029,22.799v96.26851a4.19953,4.19953,0,0,0,.08008.87483c.47021,2.9957,3.3999,5.31095,6.91992,5.31095h67.07031c3.84961,0,7-2.77478,7-6.18578V443.83422A33.02469,33.02469,0,0,0,592.50977,421.94536Z"
     transform="translate(-199.87357 -102.28851)"
     fill="#2f2e41"
     id="path927"
     style="fill:#dbfbe8;fill-opacity:1" />
  <path
     d="m 642.252,674.28851 h -16 c -3.03757,0 -5.5,-2.46243 -5.5,-5.5 0,-3.03757 2.46243,-5.5 5.5,-5.5 h 16 c 3.03757,0 5.5,2.46243 5.5,5.5 0,3.03757 -2.46243,5.5 -5.5,5.5 z"
     transform="translate(-199.87357,-102.28851)"
     fill="#2f2e41"
     id="path885"
     sodipodi:nodetypes="sssssss" />
  <path
     style="fill:none;stroke:#000000;stroke-width:1px;stroke-linecap:butt;stroke-linejoin:miter;stroke-opacity:1"
     d="m 248.29079,595.0771 c -41.0398,-58.48172 -41.0398,-58.48172 -41.0398,-58.48172"
     id="path3092" />
  <path
     style="fill:none;stroke:#000000;stroke-width:1px;stroke-linecap:butt;stroke-linejoin:miter;stroke-opacity:1"
     d="m 588.83829,667.40975 c -41.0398,-58.48172 -41.0398,-58.48172 -41.0398,-58.48172"
     id="path3092-0" />
</svg>
